<mxfile host="65bd71144e">
    <diagram id="CwanpCDFQP1gqnkH9dcI" name="api">
        <mxGraphModel dx="1061" dy="581" grid="1" gridSize="10" guides="1" tooltips="1" connect="1" arrows="1" fold="1" page="1" pageScale="1" pageWidth="827" pageHeight="1169" math="0" shadow="0">
            <root>
                <mxCell id="0"/>
                <mxCell id="1" parent="0"/>
                <mxCell id="z8sejmV_lhDYQhpb_1CH-3" value="SignUp" style="swimlane;fontStyle=0;childLayout=stackLayout;horizontal=1;startSize=30;horizontalStack=0;resizeParent=1;resizeParentMax=0;resizeLast=0;collapsible=1;marginBottom=0;whiteSpace=wrap;html=1;labelBackgroundColor=none;fontColor=#CCCCCC;swimlaneFillColor=none;gradientColor=none;fillColor=#001933;" vertex="1" parent="1">
                    <mxGeometry x="30" y="40" width="240" height="90" as="geometry"/>
                </mxCell>
                <mxCell id="z8sejmV_lhDYQhpb_1CH-4" value="&lt;span style=&quot;font-family: Menlo, Monaco, &amp;quot;Courier New&amp;quot;, monospace;&quot;&gt;../v1/api/shop/signUp&lt;/span&gt;" style="text;strokeColor=default;fillColor=default;align=left;verticalAlign=middle;spacingLeft=4;spacingRight=4;overflow=hidden;points=[[0,0.5],[1,0.5]];portConstraint=eastwest;rotatable=0;whiteSpace=wrap;html=1;labelBackgroundColor=none;fontColor=default;labelBorderColor=none;" vertex="1" parent="z8sejmV_lhDYQhpb_1CH-3">
                    <mxGeometry y="30" width="240" height="30" as="geometry"/>
                </mxCell>
                <mxCell id="z8sejmV_lhDYQhpb_1CH-5" value="Item 2" style="text;strokeColor=default;fillColor=default;align=left;verticalAlign=middle;spacingLeft=4;spacingRight=4;overflow=hidden;points=[[0,0.5],[1,0.5]];portConstraint=eastwest;rotatable=0;whiteSpace=wrap;html=1;labelBackgroundColor=none;fontColor=default;labelBorderColor=none;" vertex="1" parent="z8sejmV_lhDYQhpb_1CH-3">
                    <mxGeometry y="60" width="240" height="30" as="geometry"/>
                </mxCell>
                <mxCell id="z8sejmV_lhDYQhpb_1CH-7" value="Shops" style="swimlane;fontStyle=0;childLayout=stackLayout;horizontal=1;startSize=30;horizontalStack=0;resizeParent=1;resizeParentMax=0;resizeLast=0;collapsible=1;marginBottom=0;whiteSpace=wrap;html=1;labelBackgroundColor=none;fontColor=#CCCCCC;swimlaneFillColor=none;gradientColor=none;fillColor=#001933;" vertex="1" parent="1">
                    <mxGeometry x="340" y="50" width="240" height="90" as="geometry"/>
                </mxCell>
                <mxCell id="z8sejmV_lhDYQhpb_1CH-8" value="&lt;font face=&quot;Menlo, Monaco, Courier New, monospace&quot;&gt;id&lt;/font&gt;" style="text;strokeColor=default;fillColor=default;align=left;verticalAlign=middle;spacingLeft=4;spacingRight=4;overflow=hidden;points=[[0,0.5],[1,0.5]];portConstraint=eastwest;rotatable=0;whiteSpace=wrap;html=1;labelBackgroundColor=none;fontColor=default;labelBorderColor=none;" vertex="1" parent="z8sejmV_lhDYQhpb_1CH-7">
                    <mxGeometry y="30" width="240" height="30" as="geometry"/>
                </mxCell>
                <mxCell id="z8sejmV_lhDYQhpb_1CH-9" value="Item 2" style="text;strokeColor=default;fillColor=default;align=left;verticalAlign=middle;spacingLeft=4;spacingRight=4;overflow=hidden;points=[[0,0.5],[1,0.5]];portConstraint=eastwest;rotatable=0;whiteSpace=wrap;html=1;labelBackgroundColor=none;fontColor=default;labelBorderColor=none;" vertex="1" parent="z8sejmV_lhDYQhpb_1CH-7">
                    <mxGeometry y="60" width="240" height="30" as="geometry"/>
                </mxCell>
            </root>
        </mxGraphModel>
    </diagram>
    <diagram id="C4s00reNmn515pxBLX9K" name="Page-2">
        <mxGraphModel dx="1061" dy="581" grid="1" gridSize="10" guides="1" tooltips="1" connect="1" arrows="1" fold="1" page="1" pageScale="1" pageWidth="827" pageHeight="1169" math="0" shadow="0">
            <root>
                <mxCell id="0"/>
                <mxCell id="1" parent="0"/>
            </root>
        </mxGraphModel>
    </diagram>
</mxfile>